<?xml version="1.0" encoding="UTF-8"?>
<svg xmlns="http://www.w3.org/2000/svg" width="4029.0" height="606.0" viewBox="-8.0 -8.0 4029.0 606.0">
<defs>
  <marker id="arrow" markerUnits="userSpaceOnUse" markerWidth="8.0" markerHeight="6.0" refX="7.0" refY="3.0" orient="auto">
    <path d="M0,0 L8.0,3.0 L0,6.0 Z" fill="#8a6e3d"/>
  </marker>
</defs>
  <rect x="16.0" y="16.0" width="3981.0" height="558.0" rx="0.0" ry="0.0" fill="#fff9e8" stroke="#000" stroke-width="1.5"/>
  <path d="M17.0,36.0 L17.0,17.0 Q17.0,17.0 17.0,17.0 L3996.0,17.0 Q3996.0,17.0 3996.0,17.0 L3996.0,36.0 Z" fill="#f7e5b7"/>
  <text x="2006.5" y="29.5" text-anchor="middle" font-family="Arial, sans-serif" font-size="14">«part def»</text>
  <line x1="17.0" y1="36.0" x2="3996.0" y2="36.0" stroke="#000" stroke-width="1"/>
  <text x="2006.5" y="49.0" text-anchor="middle" font-family="Arial, sans-serif" font-size="14">TestCounter4</text>
  <line x1="17.0" y1="56.0" x2="3996.0" y2="56.0" stroke="#000" stroke-width="1"/>
  <text x="2006.5" y="71.0" text-anchor="middle" font-family="Arial, sans-serif" font-size="14" font-style="italic">parts</text>
  <rect x="34.0" y="186.0" width="226.4" height="207.0" rx="10.0" ry="10.0" fill="#fff9e8" stroke="#000" stroke-width="1.5"/>
  <path d="M35.0,206.0 L35.0,196.0 Q35.0,187.0 44.0,187.0 L250.4,187.0 Q259.4,187.0 259.4,196.0 L259.4,206.0 Z" fill="#f7e5b7"/>
  <text x="144.2" y="199.5" text-anchor="middle" font-family="Arial, sans-serif" font-size="14">«part»</text>
  <line x1="35.0" y1="206.0" x2="259.4" y2="206.0" stroke="#000" stroke-width="1"/>
  <text x="147.2" y="219.0" text-anchor="middle" font-family="Arial, sans-serif" font-size="14">clock :</text>
  <text x="147.2" y="235.0" text-anchor="middle" font-family="Arial, sans-serif" font-size="14">SingleClockPulse</text>
  <line x1="35.0" y1="242.0" x2="259.4" y2="242.0" stroke="#000" stroke-width="1"/>
  <text x="147.2" y="257.0" text-anchor="middle" font-family="Arial, sans-serif" font-size="14" font-style="italic">attributes</text>
  <text x="42.0" y="275.0" text-anchor="start" font-family="Arial, sans-serif" font-size="14">qVal : Boolean = false</text>
  <line x1="35.0" y1="288.0" x2="259.4" y2="288.0" stroke="#000" stroke-width="1"/>
  <text x="147.2" y="309.0" text-anchor="middle" font-family="Arial, sans-serif" font-size="14" font-style="italic">state machines</text>
  <text x="42.0" y="327.0" text-anchor="start" font-family="Arial, sans-serif" font-size="14">state PULSESM</text>
  <line x1="35.0" y1="340.0" x2="259.4" y2="340.0" stroke="#000" stroke-width="1"/>
  <text x="147.2" y="361.0" text-anchor="middle" font-family="Arial, sans-serif" font-size="14" font-style="italic">actions</text>
  <text x="42.0" y="379.0" text-anchor="start" font-family="Arial, sans-serif" font-size="14">action exec</text>
  <rect x="254.4" y="283.5" width="12.0" height="12.0" rx="0.0" ry="0.0" fill="#f7e5b7" stroke="#000" stroke-width="1.5"/>
  <polygon points="264.6,289.5 257.7,292.1 257.7,286.9" fill="#8a6e3d"/>
  <rect x="510.3" y="85.0" width="3357.7" height="471.0" rx="10.0" ry="10.0" fill="#fff9e8" stroke="#000" stroke-width="1.5"/>
  <path d="M511.3,105.0 L511.3,95.0 Q511.3,86.0 520.3,86.0 L3857.9,86.0 Q3866.9,86.0 3866.9,95.0 L3866.9,105.0 Z" fill="#f7e5b7"/>
  <text x="2189.1" y="98.5" text-anchor="middle" font-family="Arial, sans-serif" font-size="14">«part»</text>
  <line x1="511.3" y1="105.0" x2="3866.9" y2="105.0" stroke="#000" stroke-width="1"/>
  <text x="2189.1" y="118.0" text-anchor="middle" font-family="Arial, sans-serif" font-size="14">counter :</text>
  <text x="2189.1" y="134.0" text-anchor="middle" font-family="Arial, sans-serif" font-size="14">Counter4</text>
  <line x1="511.3" y1="141.0" x2="3866.9" y2="141.0" stroke="#000" stroke-width="1"/>
  <text x="2189.1" y="156.0" text-anchor="middle" font-family="Arial, sans-serif" font-size="14" font-style="italic">parts</text>
  <rect x="504.3" y="283.5" width="12.0" height="12.0" rx="0.0" ry="0.0" fill="#f7e5b7" stroke="#000" stroke-width="1.5"/>
  <polygon points="514.5,289.5 507.6,292.1 507.6,286.9" fill="#8a6e3d"/>
  <rect x="3861.9" y="511.0" width="12.0" height="12.0" rx="0.0" ry="0.0" fill="#f7e5b7" stroke="#000" stroke-width="1.5"/>
  <polygon points="3872.1,517.0 3865.3,519.6 3865.3,514.4" fill="#8a6e3d"/>
  <rect x="3861.9" y="464.0" width="12.0" height="12.0" rx="0.0" ry="0.0" fill="#f7e5b7" stroke="#000" stroke-width="1.5"/>
  <polygon points="3872.1,470.0 3865.3,472.6 3865.3,467.4" fill="#8a6e3d"/>
  <rect x="3861.9" y="417.0" width="12.0" height="12.0" rx="0.0" ry="0.0" fill="#f7e5b7" stroke="#000" stroke-width="1.5"/>
  <polygon points="3872.1,423.0 3865.3,425.6 3865.3,420.4" fill="#8a6e3d"/>
  <rect x="3861.9" y="283.5" width="12.0" height="12.0" rx="0.0" ry="0.0" fill="#f7e5b7" stroke="#000" stroke-width="1.5"/>
  <polygon points="3872.1,289.5 3865.3,292.1 3865.3,286.9" fill="#8a6e3d"/>
  <rect x="660.8" y="170.0" width="226.4" height="239.0" rx="10.0" ry="10.0" fill="#fff9e8" stroke="#000" stroke-width="1.5"/>
  <path d="M661.8,190.0 L661.8,180.0 Q661.8,171.0 670.8,171.0 L877.1,171.0 Q886.1,171.0 886.1,180.0 L886.1,190.0 Z" fill="#f7e5b7"/>
  <text x="773.9" y="183.5" text-anchor="middle" font-family="Arial, sans-serif" font-size="14">«part»</text>
  <line x1="661.8" y1="190.0" x2="886.1" y2="190.0" stroke="#000" stroke-width="1"/>
  <text x="773.9" y="203.0" text-anchor="middle" font-family="Arial, sans-serif" font-size="14">t0 :</text>
  <text x="773.9" y="219.0" text-anchor="middle" font-family="Arial, sans-serif" font-size="14">T_FF_AnyEdge</text>
  <line x1="661.8" y1="226.0" x2="886.1" y2="226.0" stroke="#000" stroke-width="1"/>
  <text x="773.9" y="241.0" text-anchor="middle" font-family="Arial, sans-serif" font-size="14" font-style="italic">attributes</text>
  <text x="668.8" y="259.0" text-anchor="start" font-family="Arial, sans-serif" font-size="14">c : Boolean = false</text>
  <text x="668.8" y="275.0" text-anchor="start" font-family="Arial, sans-serif" font-size="14">old : Boolean = false</text>
  <text x="668.8" y="291.0" text-anchor="start" font-family="Arial, sans-serif" font-size="14">qVal : Boolean = false</text>
  <line x1="661.8" y1="304.0" x2="886.1" y2="304.0" stroke="#000" stroke-width="1"/>
  <text x="773.9" y="325.0" text-anchor="middle" font-family="Arial, sans-serif" font-size="14" font-style="italic">state machines</text>
  <text x="668.8" y="343.0" text-anchor="start" font-family="Arial, sans-serif" font-size="14">state TFFANYSM</text>
  <line x1="661.8" y1="356.0" x2="886.1" y2="356.0" stroke="#000" stroke-width="1"/>
  <text x="773.9" y="377.0" text-anchor="middle" font-family="Arial, sans-serif" font-size="14" font-style="italic">actions</text>
  <text x="668.8" y="395.0" text-anchor="start" font-family="Arial, sans-serif" font-size="14">action exec</text>
  <rect x="654.8" y="283.5" width="12.0" height="12.0" rx="0.0" ry="0.0" fill="#f7e5b7" stroke="#000" stroke-width="1.5"/>
  <polygon points="665.0,289.5 658.1,292.1 658.1,286.9" fill="#8a6e3d"/>
  <rect x="881.1" y="283.5" width="12.0" height="12.0" rx="0.0" ry="0.0" fill="#f7e5b7" stroke="#000" stroke-width="1.5"/>
  <polygon points="891.3,289.5 884.5,292.1 884.5,286.9" fill="#8a6e3d"/>
  <rect x="1145.0" y="178.0" width="217.0" height="223.0" rx="10.0" ry="10.0" fill="#fff9e8" stroke="#000" stroke-width="1.5"/>
  <path d="M1146.0,198.0 L1146.0,188.0 Q1146.0,179.0 1155.0,179.0 L1352.0,179.0 Q1361.0,179.0 1361.0,188.0 L1361.0,198.0 Z" fill="#f7e5b7"/>
  <text x="1253.5" y="191.5" text-anchor="middle" font-family="Arial, sans-serif" font-size="14">«part»</text>
  <line x1="1146.0" y1="198.0" x2="1361.0" y2="198.0" stroke="#000" stroke-width="1"/>
  <text x="1253.5" y="211.0" text-anchor="middle" font-family="Arial, sans-serif" font-size="14">f0 :</text>
  <text x="1253.5" y="227.0" text-anchor="middle" font-family="Arial, sans-serif" font-size="14">F_TRIG</text>
  <line x1="1146.0" y1="234.0" x2="1361.0" y2="234.0" stroke="#000" stroke-width="1"/>
  <text x="1253.5" y="249.0" text-anchor="middle" font-family="Arial, sans-serif" font-size="14" font-style="italic">attributes</text>
  <text x="1153.0" y="267.0" text-anchor="start" font-family="Arial, sans-serif" font-size="14">clk : Boolean = false</text>
  <text x="1153.0" y="283.0" text-anchor="start" font-family="Arial, sans-serif" font-size="14">old : Boolean = false</text>
  <line x1="1146.0" y1="296.0" x2="1361.0" y2="296.0" stroke="#000" stroke-width="1"/>
  <text x="1253.5" y="317.0" text-anchor="middle" font-family="Arial, sans-serif" font-size="14" font-style="italic">state machines</text>
  <text x="1153.0" y="335.0" text-anchor="start" font-family="Arial, sans-serif" font-size="14">state FTrig</text>
  <line x1="1146.0" y1="348.0" x2="1361.0" y2="348.0" stroke="#000" stroke-width="1"/>
  <text x="1253.5" y="369.0" text-anchor="middle" font-family="Arial, sans-serif" font-size="14" font-style="italic">actions</text>
  <text x="1153.0" y="387.0" text-anchor="start" font-family="Arial, sans-serif" font-size="14">action exec</text>
  <rect x="1139.0" y="283.5" width="12.0" height="12.0" rx="0.0" ry="0.0" fill="#f7e5b7" stroke="#000" stroke-width="1.5"/>
  <polygon points="1149.2,289.5 1142.4,292.1 1142.4,286.9" fill="#8a6e3d"/>
  <rect x="1356.0" y="283.5" width="12.0" height="12.0" rx="0.0" ry="0.0" fill="#f7e5b7" stroke="#000" stroke-width="1.5"/>
  <polygon points="1366.2,289.5 1359.4,292.1 1359.4,286.9" fill="#8a6e3d"/>
  <rect x="1611.9" y="170.0" width="226.4" height="239.0" rx="10.0" ry="10.0" fill="#fff9e8" stroke="#000" stroke-width="1.5"/>
  <path d="M1612.9,190.0 L1612.9,180.0 Q1612.9,171.0 1621.9,171.0 L1828.3,171.0 Q1837.3,171.0 1837.3,180.0 L1837.3,190.0 Z" fill="#f7e5b7"/>
  <text x="1725.1" y="183.5" text-anchor="middle" font-family="Arial, sans-serif" font-size="14">«part»</text>
  <line x1="1612.9" y1="190.0" x2="1837.3" y2="190.0" stroke="#000" stroke-width="1"/>
  <text x="1725.1" y="203.0" text-anchor="middle" font-family="Arial, sans-serif" font-size="14">t1 :</text>
  <text x="1725.1" y="219.0" text-anchor="middle" font-family="Arial, sans-serif" font-size="14">T_FF</text>
  <line x1="1612.9" y1="226.0" x2="1837.3" y2="226.0" stroke="#000" stroke-width="1"/>
  <text x="1725.1" y="241.0" text-anchor="middle" font-family="Arial, sans-serif" font-size="14" font-style="italic">attributes</text>
  <text x="1619.9" y="259.0" text-anchor="start" font-family="Arial, sans-serif" font-size="14">c : Boolean = false</text>
  <text x="1619.9" y="275.0" text-anchor="start" font-family="Arial, sans-serif" font-size="14">old : Boolean = false</text>
  <text x="1619.9" y="291.0" text-anchor="start" font-family="Arial, sans-serif" font-size="14">qVal : Boolean = false</text>
  <line x1="1612.9" y1="304.0" x2="1837.3" y2="304.0" stroke="#000" stroke-width="1"/>
  <text x="1725.1" y="325.0" text-anchor="middle" font-family="Arial, sans-serif" font-size="14" font-style="italic">state machines</text>
  <text x="1619.9" y="343.0" text-anchor="start" font-family="Arial, sans-serif" font-size="14">state TFFSM</text>
  <line x1="1612.9" y1="356.0" x2="1837.3" y2="356.0" stroke="#000" stroke-width="1"/>
  <text x="1725.1" y="377.0" text-anchor="middle" font-family="Arial, sans-serif" font-size="14" font-style="italic">actions</text>
  <text x="1619.9" y="395.0" text-anchor="start" font-family="Arial, sans-serif" font-size="14">action exec</text>
  <rect x="1605.9" y="283.5" width="12.0" height="12.0" rx="0.0" ry="0.0" fill="#f7e5b7" stroke="#000" stroke-width="1.5"/>
  <polygon points="1616.1,289.5 1609.3,292.1 1609.3,286.9" fill="#8a6e3d"/>
  <rect x="1832.3" y="283.5" width="12.0" height="12.0" rx="0.0" ry="0.0" fill="#f7e5b7" stroke="#000" stroke-width="1.5"/>
  <polygon points="1842.5,289.5 1835.6,292.1 1835.6,286.9" fill="#8a6e3d"/>
  <rect x="2096.2" y="178.0" width="217.0" height="223.0" rx="10.0" ry="10.0" fill="#fff9e8" stroke="#000" stroke-width="1.5"/>
  <path d="M2097.2,198.0 L2097.2,188.0 Q2097.2,179.0 2106.2,179.0 L2303.1,179.0 Q2312.1,179.0 2312.1,188.0 L2312.1,198.0 Z" fill="#f7e5b7"/>
  <text x="2204.7" y="191.5" text-anchor="middle" font-family="Arial, sans-serif" font-size="14">«part»</text>
  <line x1="2097.2" y1="198.0" x2="2312.1" y2="198.0" stroke="#000" stroke-width="1"/>
  <text x="2204.7" y="211.0" text-anchor="middle" font-family="Arial, sans-serif" font-size="14">f1 :</text>
  <text x="2204.7" y="227.0" text-anchor="middle" font-family="Arial, sans-serif" font-size="14">F_TRIG</text>
  <line x1="2097.2" y1="234.0" x2="2312.1" y2="234.0" stroke="#000" stroke-width="1"/>
  <text x="2204.7" y="249.0" text-anchor="middle" font-family="Arial, sans-serif" font-size="14" font-style="italic">attributes</text>
  <text x="2104.2" y="267.0" text-anchor="start" font-family="Arial, sans-serif" font-size="14">clk : Boolean = false</text>
  <text x="2104.2" y="283.0" text-anchor="start" font-family="Arial, sans-serif" font-size="14">old : Boolean = false</text>
  <line x1="2097.2" y1="296.0" x2="2312.1" y2="296.0" stroke="#000" stroke-width="1"/>
  <text x="2204.7" y="317.0" text-anchor="middle" font-family="Arial, sans-serif" font-size="14" font-style="italic">state machines</text>
  <text x="2104.2" y="335.0" text-anchor="start" font-family="Arial, sans-serif" font-size="14">state FTrig</text>
  <line x1="2097.2" y1="348.0" x2="2312.1" y2="348.0" stroke="#000" stroke-width="1"/>
  <text x="2204.7" y="369.0" text-anchor="middle" font-family="Arial, sans-serif" font-size="14" font-style="italic">actions</text>
  <text x="2104.2" y="387.0" text-anchor="start" font-family="Arial, sans-serif" font-size="14">action exec</text>
  <rect x="2090.2" y="283.5" width="12.0" height="12.0" rx="0.0" ry="0.0" fill="#f7e5b7" stroke="#000" stroke-width="1.5"/>
  <polygon points="2100.4,289.5 2093.5,292.1 2093.5,286.9" fill="#8a6e3d"/>
  <rect x="2307.1" y="283.5" width="12.0" height="12.0" rx="0.0" ry="0.0" fill="#f7e5b7" stroke="#000" stroke-width="1.5"/>
  <polygon points="2317.3,289.5 2310.5,292.1 2310.5,286.9" fill="#8a6e3d"/>
  <rect x="2563.0" y="170.0" width="226.4" height="239.0" rx="10.0" ry="10.0" fill="#fff9e8" stroke="#000" stroke-width="1.5"/>
  <path d="M2564.0,190.0 L2564.0,180.0 Q2564.0,171.0 2573.0,171.0 L2779.4,171.0 Q2788.4,171.0 2788.4,180.0 L2788.4,190.0 Z" fill="#f7e5b7"/>
  <text x="2676.2" y="183.5" text-anchor="middle" font-family="Arial, sans-serif" font-size="14">«part»</text>
  <line x1="2564.0" y1="190.0" x2="2788.4" y2="190.0" stroke="#000" stroke-width="1"/>
  <text x="2676.2" y="203.0" text-anchor="middle" font-family="Arial, sans-serif" font-size="14">t2 :</text>
  <text x="2676.2" y="219.0" text-anchor="middle" font-family="Arial, sans-serif" font-size="14">T_FF</text>
  <line x1="2564.0" y1="226.0" x2="2788.4" y2="226.0" stroke="#000" stroke-width="1"/>
  <text x="2676.2" y="241.0" text-anchor="middle" font-family="Arial, sans-serif" font-size="14" font-style="italic">attributes</text>
  <text x="2571.0" y="259.0" text-anchor="start" font-family="Arial, sans-serif" font-size="14">c : Boolean = false</text>
  <text x="2571.0" y="275.0" text-anchor="start" font-family="Arial, sans-serif" font-size="14">old : Boolean = false</text>
  <text x="2571.0" y="291.0" text-anchor="start" font-family="Arial, sans-serif" font-size="14">qVal : Boolean = false</text>
  <line x1="2564.0" y1="304.0" x2="2788.4" y2="304.0" stroke="#000" stroke-width="1"/>
  <text x="2676.2" y="325.0" text-anchor="middle" font-family="Arial, sans-serif" font-size="14" font-style="italic">state machines</text>
  <text x="2571.0" y="343.0" text-anchor="start" font-family="Arial, sans-serif" font-size="14">state TFFSM</text>
  <line x1="2564.0" y1="356.0" x2="2788.4" y2="356.0" stroke="#000" stroke-width="1"/>
  <text x="2676.2" y="377.0" text-anchor="middle" font-family="Arial, sans-serif" font-size="14" font-style="italic">actions</text>
  <text x="2571.0" y="395.0" text-anchor="start" font-family="Arial, sans-serif" font-size="14">action exec</text>
  <rect x="2557.0" y="283.5" width="12.0" height="12.0" rx="0.0" ry="0.0" fill="#f7e5b7" stroke="#000" stroke-width="1.5"/>
  <polygon points="2567.2,289.5 2560.4,292.1 2560.4,286.9" fill="#8a6e3d"/>
  <rect x="2783.4" y="283.5" width="12.0" height="12.0" rx="0.0" ry="0.0" fill="#f7e5b7" stroke="#000" stroke-width="1.5"/>
  <polygon points="2793.6,289.5 2786.8,292.1 2786.8,286.9" fill="#8a6e3d"/>
  <rect x="3047.3" y="178.0" width="217.0" height="223.0" rx="10.0" ry="10.0" fill="#fff9e8" stroke="#000" stroke-width="1.5"/>
  <path d="M3048.3,198.0 L3048.3,188.0 Q3048.3,179.0 3057.3,179.0 L3254.3,179.0 Q3263.3,179.0 3263.3,188.0 L3263.3,198.0 Z" fill="#f7e5b7"/>
  <text x="3155.8" y="191.5" text-anchor="middle" font-family="Arial, sans-serif" font-size="14">«part»</text>
  <line x1="3048.3" y1="198.0" x2="3263.3" y2="198.0" stroke="#000" stroke-width="1"/>
  <text x="3155.8" y="211.0" text-anchor="middle" font-family="Arial, sans-serif" font-size="14">f2 :</text>
  <text x="3155.8" y="227.0" text-anchor="middle" font-family="Arial, sans-serif" font-size="14">F_TRIG</text>
  <line x1="3048.3" y1="234.0" x2="3263.3" y2="234.0" stroke="#000" stroke-width="1"/>
  <text x="3155.8" y="249.0" text-anchor="middle" font-family="Arial, sans-serif" font-size="14" font-style="italic">attributes</text>
  <text x="3055.3" y="267.0" text-anchor="start" font-family="Arial, sans-serif" font-size="14">clk : Boolean = false</text>
  <text x="3055.3" y="283.0" text-anchor="start" font-family="Arial, sans-serif" font-size="14">old : Boolean = false</text>
  <line x1="3048.3" y1="296.0" x2="3263.3" y2="296.0" stroke="#000" stroke-width="1"/>
  <text x="3155.8" y="317.0" text-anchor="middle" font-family="Arial, sans-serif" font-size="14" font-style="italic">state machines</text>
  <text x="3055.3" y="335.0" text-anchor="start" font-family="Arial, sans-serif" font-size="14">state FTrig</text>
  <line x1="3048.3" y1="348.0" x2="3263.3" y2="348.0" stroke="#000" stroke-width="1"/>
  <text x="3155.8" y="369.0" text-anchor="middle" font-family="Arial, sans-serif" font-size="14" font-style="italic">actions</text>
  <text x="3055.3" y="387.0" text-anchor="start" font-family="Arial, sans-serif" font-size="14">action exec</text>
  <rect x="3041.3" y="283.5" width="12.0" height="12.0" rx="0.0" ry="0.0" fill="#f7e5b7" stroke="#000" stroke-width="1.5"/>
  <polygon points="3051.5,289.5 3044.7,292.1 3044.7,286.9" fill="#8a6e3d"/>
  <rect x="3258.3" y="283.5" width="12.0" height="12.0" rx="0.0" ry="0.0" fill="#f7e5b7" stroke="#000" stroke-width="1.5"/>
  <polygon points="3268.5,289.5 3261.6,292.1 3261.6,286.9" fill="#8a6e3d"/>
  <rect x="3514.2" y="170.0" width="226.4" height="239.0" rx="10.0" ry="10.0" fill="#fff9e8" stroke="#000" stroke-width="1.5"/>
  <path d="M3515.2,190.0 L3515.2,180.0 Q3515.2,171.0 3524.2,171.0 L3730.5,171.0 Q3739.5,171.0 3739.5,180.0 L3739.5,190.0 Z" fill="#f7e5b7"/>
  <text x="3627.4" y="183.5" text-anchor="middle" font-family="Arial, sans-serif" font-size="14">«part»</text>
  <line x1="3515.2" y1="190.0" x2="3739.5" y2="190.0" stroke="#000" stroke-width="1"/>
  <text x="3627.4" y="203.0" text-anchor="middle" font-family="Arial, sans-serif" font-size="14">t3 :</text>
  <text x="3627.4" y="219.0" text-anchor="middle" font-family="Arial, sans-serif" font-size="14">T_FF</text>
  <line x1="3515.2" y1="226.0" x2="3739.5" y2="226.0" stroke="#000" stroke-width="1"/>
  <text x="3627.4" y="241.0" text-anchor="middle" font-family="Arial, sans-serif" font-size="14" font-style="italic">attributes</text>
  <text x="3522.2" y="259.0" text-anchor="start" font-family="Arial, sans-serif" font-size="14">c : Boolean = false</text>
  <text x="3522.2" y="275.0" text-anchor="start" font-family="Arial, sans-serif" font-size="14">old : Boolean = false</text>
  <text x="3522.2" y="291.0" text-anchor="start" font-family="Arial, sans-serif" font-size="14">qVal : Boolean = false</text>
  <line x1="3515.2" y1="304.0" x2="3739.5" y2="304.0" stroke="#000" stroke-width="1"/>
  <text x="3627.4" y="325.0" text-anchor="middle" font-family="Arial, sans-serif" font-size="14" font-style="italic">state machines</text>
  <text x="3522.2" y="343.0" text-anchor="start" font-family="Arial, sans-serif" font-size="14">state TFFSM</text>
  <line x1="3515.2" y1="356.0" x2="3739.5" y2="356.0" stroke="#000" stroke-width="1"/>
  <text x="3627.4" y="377.0" text-anchor="middle" font-family="Arial, sans-serif" font-size="14" font-style="italic">actions</text>
  <text x="3522.2" y="395.0" text-anchor="start" font-family="Arial, sans-serif" font-size="14">action exec</text>
  <rect x="3508.2" y="283.5" width="12.0" height="12.0" rx="0.0" ry="0.0" fill="#f7e5b7" stroke="#000" stroke-width="1.5"/>
  <polygon points="3518.4,289.5 3511.5,292.1 3511.5,286.9" fill="#8a6e3d"/>
  <rect x="3734.5" y="283.5" width="12.0" height="12.0" rx="0.0" ry="0.0" fill="#f7e5b7" stroke="#000" stroke-width="1.5"/>
  <polygon points="3744.7,289.5 3737.9,292.1 3737.9,286.9" fill="#8a6e3d"/>
  <path d="M266.4,289.5 L504.3,289.5" fill="none" stroke="#8a6e3d" stroke-width="1.0"/>
  <path d="M893.1,289.5 L1139.0,289.5" fill="none" stroke="#8a6e3d" stroke-width="1.0"/>
  <path d="M1368.0,289.5 L1605.9,289.5" fill="none" stroke="#8a6e3d" stroke-width="1.0"/>
  <path d="M1844.3,289.5 L2090.2,289.5" fill="none" stroke="#8a6e3d" stroke-width="1.0"/>
  <path d="M2319.1,289.5 L2557.0,289.5" fill="none" stroke="#8a6e3d" stroke-width="1.0"/>
  <path d="M2795.4,289.5 L3041.3,289.5" fill="none" stroke="#8a6e3d" stroke-width="1.0"/>
  <path d="M3270.3,289.5 L3508.2,289.5" fill="none" stroke="#8a6e3d" stroke-width="1.0"/>
  <path d="M504.3,289.5 L654.8,289.5" fill="none" stroke="#2f6f9f" stroke-width="1.0"/>
  <path d="M3873.9,517.0 L1004.5,517.0 L1004.5,289.5 L893.1,289.5" fill="none" stroke="#2f6f9f" stroke-width="1.0"/>
  <path d="M3873.9,470.0 L1955.7,470.0 L1955.7,289.5 L1844.3,289.5" fill="none" stroke="#2f6f9f" stroke-width="1.0"/>
  <path d="M3873.9,423.0 L2906.8,423.0 L2906.8,289.5 L2795.4,289.5" fill="none" stroke="#2f6f9f" stroke-width="1.0"/>
  <path d="M3873.9,289.5 L3746.5,289.5" fill="none" stroke="#2f6f9f" stroke-width="1.0"/>
  <circle cx="1004.5" cy="289.5" r="2.5" fill="#2f6f9f"/>
  <circle cx="1955.7" cy="289.5" r="2.5" fill="#2f6f9f"/>
  <circle cx="2906.8" cy="289.5" r="2.5" fill="#2f6f9f"/>
  <text x="271.3" y="284.6" text-anchor="start" font-family="Arial, sans-serif" font-size="14">q : BoolPort</text>
  <text x="499.4" y="284.6" text-anchor="end" font-family="Arial, sans-serif" font-size="14">clk : ~BoolPort</text>
  <text x="3884.8" y="508.0" text-anchor="start" font-family="Arial, sans-serif" font-size="14">b0 : BoolPort</text>
  <line x1="3884.8" y1="503.8" x2="3879.9" y2="503.8" stroke="#8a6e3d" stroke-width="0.9" stroke-dasharray="1.5 2"/>
  <circle cx="3879.9" cy="503.8" r="2.8" fill="#000" stroke="none"/>
  <text x="3884.8" y="461.0" text-anchor="start" font-family="Arial, sans-serif" font-size="14">b1 : BoolPort</text>
  <line x1="3884.8" y1="456.8" x2="3879.9" y2="456.8" stroke="#8a6e3d" stroke-width="0.9" stroke-dasharray="1.5 2"/>
  <circle cx="3879.9" cy="456.8" r="2.8" fill="#000" stroke="none"/>
  <text x="3884.8" y="414.0" text-anchor="start" font-family="Arial, sans-serif" font-size="14">b2 : BoolPort</text>
  <line x1="3884.8" y1="409.8" x2="3879.9" y2="409.8" stroke="#8a6e3d" stroke-width="0.9" stroke-dasharray="1.5 2"/>
  <circle cx="3879.9" cy="409.8" r="2.8" fill="#000" stroke="none"/>
  <text x="3884.8" y="280.5" text-anchor="start" font-family="Arial, sans-serif" font-size="14">b3 : BoolPort</text>
  <line x1="3884.8" y1="276.3" x2="3879.9" y2="276.3" stroke="#8a6e3d" stroke-width="0.9" stroke-dasharray="1.5 2"/>
  <circle cx="3879.9" cy="276.3" r="2.8" fill="#000" stroke="none"/>
  <text x="643.9" y="280.5" text-anchor="end" font-family="Arial, sans-serif" font-size="14">clk : ~BoolPort</text>
  <line x1="643.9" y1="276.3" x2="648.8" y2="276.3" stroke="#8a6e3d" stroke-width="0.9" stroke-dasharray="1.5 2"/>
  <circle cx="648.8" cy="276.3" r="2.8" fill="#000" stroke="none"/>
  <text x="898.0" y="284.6" text-anchor="start" font-family="Arial, sans-serif" font-size="14">q : BoolPort</text>
  <text x="1134.1" y="284.6" text-anchor="end" font-family="Arial, sans-serif" font-size="14">set : ~BoolPort</text>
  <text x="1372.9" y="284.6" text-anchor="start" font-family="Arial, sans-serif" font-size="14">q : BoolPort</text>
  <text x="1601.0" y="284.6" text-anchor="end" font-family="Arial, sans-serif" font-size="14">clk : ~BoolPort</text>
  <text x="1849.2" y="284.6" text-anchor="start" font-family="Arial, sans-serif" font-size="14">q : BoolPort</text>
  <text x="2085.3" y="284.6" text-anchor="end" font-family="Arial, sans-serif" font-size="14">set : ~BoolPort</text>
  <text x="2324.0" y="284.6" text-anchor="start" font-family="Arial, sans-serif" font-size="14">q : BoolPort</text>
  <text x="2552.1" y="284.6" text-anchor="end" font-family="Arial, sans-serif" font-size="14">clk : ~BoolPort</text>
  <text x="2800.3" y="284.6" text-anchor="start" font-family="Arial, sans-serif" font-size="14">q : BoolPort</text>
  <text x="3036.4" y="284.6" text-anchor="end" font-family="Arial, sans-serif" font-size="14">set : ~BoolPort</text>
  <text x="3275.2" y="284.6" text-anchor="start" font-family="Arial, sans-serif" font-size="14">q : BoolPort</text>
  <text x="3503.3" y="284.6" text-anchor="end" font-family="Arial, sans-serif" font-size="14">clk : ~BoolPort</text>
  <text x="3757.4" y="280.5" text-anchor="start" font-family="Arial, sans-serif" font-size="14">q : BoolPort</text>
  <line x1="3757.4" y1="276.3" x2="3752.5" y2="276.3" stroke="#8a6e3d" stroke-width="0.9" stroke-dasharray="1.5 2"/>
  <circle cx="3752.5" cy="276.3" r="2.8" fill="#000" stroke="none"/>
</svg>
